%TF.GenerationSoftware,KiCad,Pcbnew,7.0.9*%
%TF.CreationDate,2024-04-07T08:45:40-04:00*%
%TF.ProjectId,MD-90SM-breakout,4d442d39-3053-44d2-9d62-7265616b6f75,0.1*%
%TF.SameCoordinates,PX85b991cPY53920b0*%
%TF.FileFunction,Legend,Top*%
%TF.FilePolarity,Positive*%
%FSLAX45Y45*%
G04 Gerber Fmt 4.5, Leading zero omitted, Abs format (unit mm)*
G04 Created by KiCad (PCBNEW 7.0.9) date 2024-04-07 08:45:40*
%MOMM*%
%LPD*%
G01*
G04 APERTURE LIST*
%ADD10C,0.203200*%
%ADD11C,0.254000*%
G04 APERTURE END LIST*
D10*
X1087967Y-1631380D02*
X1045633Y-1631380D01*
X1045633Y-1631380D02*
X1045633Y-1542480D01*
X1168400Y-1631380D02*
X1138767Y-1589047D01*
X1117600Y-1631380D02*
X1117600Y-1542480D01*
X1117600Y-1542480D02*
X1151467Y-1542480D01*
X1151467Y-1542480D02*
X1159933Y-1546713D01*
X1159933Y-1546713D02*
X1164167Y-1550947D01*
X1164167Y-1550947D02*
X1168400Y-1559413D01*
X1168400Y-1559413D02*
X1168400Y-1572113D01*
X1168400Y-1572113D02*
X1164167Y-1580580D01*
X1164167Y-1580580D02*
X1159933Y-1584813D01*
X1159933Y-1584813D02*
X1151467Y-1589047D01*
X1151467Y-1589047D02*
X1117600Y-1589047D01*
X1035050Y-1881147D02*
X1047750Y-1885380D01*
X1047750Y-1885380D02*
X1068917Y-1885380D01*
X1068917Y-1885380D02*
X1077383Y-1881147D01*
X1077383Y-1881147D02*
X1081617Y-1876913D01*
X1081617Y-1876913D02*
X1085850Y-1868447D01*
X1085850Y-1868447D02*
X1085850Y-1859980D01*
X1085850Y-1859980D02*
X1081617Y-1851513D01*
X1081617Y-1851513D02*
X1077383Y-1847280D01*
X1077383Y-1847280D02*
X1068917Y-1843047D01*
X1068917Y-1843047D02*
X1051983Y-1838813D01*
X1051983Y-1838813D02*
X1043517Y-1834580D01*
X1043517Y-1834580D02*
X1039283Y-1830347D01*
X1039283Y-1830347D02*
X1035050Y-1821880D01*
X1035050Y-1821880D02*
X1035050Y-1813413D01*
X1035050Y-1813413D02*
X1039283Y-1804947D01*
X1039283Y-1804947D02*
X1043517Y-1800713D01*
X1043517Y-1800713D02*
X1051983Y-1796480D01*
X1051983Y-1796480D02*
X1073150Y-1796480D01*
X1073150Y-1796480D02*
X1085850Y-1800713D01*
X1174750Y-1885380D02*
X1145117Y-1843047D01*
X1123950Y-1885380D02*
X1123950Y-1796480D01*
X1123950Y-1796480D02*
X1157817Y-1796480D01*
X1157817Y-1796480D02*
X1166283Y-1800713D01*
X1166283Y-1800713D02*
X1170517Y-1804947D01*
X1170517Y-1804947D02*
X1174750Y-1813413D01*
X1174750Y-1813413D02*
X1174750Y-1826113D01*
X1174750Y-1826113D02*
X1170517Y-1834580D01*
X1170517Y-1834580D02*
X1166283Y-1838813D01*
X1166283Y-1838813D02*
X1157817Y-1843047D01*
X1157817Y-1843047D02*
X1123950Y-1843047D01*
X1043517Y-2135147D02*
X1056217Y-2139380D01*
X1056217Y-2139380D02*
X1077383Y-2139380D01*
X1077383Y-2139380D02*
X1085850Y-2135147D01*
X1085850Y-2135147D02*
X1090083Y-2130914D01*
X1090083Y-2130914D02*
X1094317Y-2122447D01*
X1094317Y-2122447D02*
X1094317Y-2113980D01*
X1094317Y-2113980D02*
X1090083Y-2105514D01*
X1090083Y-2105514D02*
X1085850Y-2101280D01*
X1085850Y-2101280D02*
X1077383Y-2097047D01*
X1077383Y-2097047D02*
X1060450Y-2092813D01*
X1060450Y-2092813D02*
X1051983Y-2088580D01*
X1051983Y-2088580D02*
X1047750Y-2084347D01*
X1047750Y-2084347D02*
X1043517Y-2075880D01*
X1043517Y-2075880D02*
X1043517Y-2067413D01*
X1043517Y-2067413D02*
X1047750Y-2058947D01*
X1047750Y-2058947D02*
X1051983Y-2054713D01*
X1051983Y-2054713D02*
X1060450Y-2050480D01*
X1060450Y-2050480D02*
X1081617Y-2050480D01*
X1081617Y-2050480D02*
X1094317Y-2054713D01*
X1174750Y-2139380D02*
X1132417Y-2139380D01*
X1132417Y-2139380D02*
X1132417Y-2050480D01*
X1117600Y-2389147D02*
X1130300Y-2393380D01*
X1130300Y-2393380D02*
X1151467Y-2393380D01*
X1151467Y-2393380D02*
X1159933Y-2389147D01*
X1159933Y-2389147D02*
X1164167Y-2384914D01*
X1164167Y-2384914D02*
X1168400Y-2376447D01*
X1168400Y-2376447D02*
X1168400Y-2367980D01*
X1168400Y-2367980D02*
X1164167Y-2359514D01*
X1164167Y-2359514D02*
X1159933Y-2355280D01*
X1159933Y-2355280D02*
X1151467Y-2351047D01*
X1151467Y-2351047D02*
X1134533Y-2346814D01*
X1134533Y-2346814D02*
X1126067Y-2342580D01*
X1126067Y-2342580D02*
X1121833Y-2338347D01*
X1121833Y-2338347D02*
X1117600Y-2329880D01*
X1117600Y-2329880D02*
X1117600Y-2321414D01*
X1117600Y-2321414D02*
X1121833Y-2312947D01*
X1121833Y-2312947D02*
X1126067Y-2308714D01*
X1126067Y-2308714D02*
X1134533Y-2304480D01*
X1134533Y-2304480D02*
X1155700Y-2304480D01*
X1155700Y-2304480D02*
X1168400Y-2308714D01*
X789517Y-2130914D02*
X785283Y-2135147D01*
X785283Y-2135147D02*
X772583Y-2139380D01*
X772583Y-2139380D02*
X764117Y-2139380D01*
X764117Y-2139380D02*
X751417Y-2135147D01*
X751417Y-2135147D02*
X742950Y-2126680D01*
X742950Y-2126680D02*
X738717Y-2118214D01*
X738717Y-2118214D02*
X734483Y-2101280D01*
X734483Y-2101280D02*
X734483Y-2088580D01*
X734483Y-2088580D02*
X738717Y-2071647D01*
X738717Y-2071647D02*
X742950Y-2063180D01*
X742950Y-2063180D02*
X751417Y-2054713D01*
X751417Y-2054713D02*
X764117Y-2050480D01*
X764117Y-2050480D02*
X772583Y-2050480D01*
X772583Y-2050480D02*
X785283Y-2054713D01*
X785283Y-2054713D02*
X789517Y-2058947D01*
X814917Y-2050480D02*
X844550Y-2139380D01*
X844550Y-2139380D02*
X874183Y-2050480D01*
X789517Y-1885380D02*
X759883Y-1843047D01*
X738717Y-1885380D02*
X738717Y-1796480D01*
X738717Y-1796480D02*
X772583Y-1796480D01*
X772583Y-1796480D02*
X781050Y-1800713D01*
X781050Y-1800713D02*
X785283Y-1804947D01*
X785283Y-1804947D02*
X789517Y-1813413D01*
X789517Y-1813413D02*
X789517Y-1826113D01*
X789517Y-1826113D02*
X785283Y-1834580D01*
X785283Y-1834580D02*
X781050Y-1838813D01*
X781050Y-1838813D02*
X772583Y-1843047D01*
X772583Y-1843047D02*
X738717Y-1843047D01*
X785283Y-1546713D02*
X776817Y-1542480D01*
X776817Y-1542480D02*
X764117Y-1542480D01*
X764117Y-1542480D02*
X751417Y-1546713D01*
X751417Y-1546713D02*
X742950Y-1555180D01*
X742950Y-1555180D02*
X738717Y-1563647D01*
X738717Y-1563647D02*
X734483Y-1580580D01*
X734483Y-1580580D02*
X734483Y-1593280D01*
X734483Y-1593280D02*
X738717Y-1610213D01*
X738717Y-1610213D02*
X742950Y-1618680D01*
X742950Y-1618680D02*
X751417Y-1627147D01*
X751417Y-1627147D02*
X764117Y-1631380D01*
X764117Y-1631380D02*
X772583Y-1631380D01*
X772583Y-1631380D02*
X785283Y-1627147D01*
X785283Y-1627147D02*
X789517Y-1622913D01*
X789517Y-1622913D02*
X789517Y-1593280D01*
X789517Y-1593280D02*
X772583Y-1593280D01*
X768350Y-1330814D02*
X781050Y-1335047D01*
X781050Y-1335047D02*
X785283Y-1339280D01*
X785283Y-1339280D02*
X789517Y-1347747D01*
X789517Y-1347747D02*
X789517Y-1360447D01*
X789517Y-1360447D02*
X785283Y-1368914D01*
X785283Y-1368914D02*
X781050Y-1373147D01*
X781050Y-1373147D02*
X772583Y-1377380D01*
X772583Y-1377380D02*
X738717Y-1377380D01*
X738717Y-1377380D02*
X738717Y-1288480D01*
X738717Y-1288480D02*
X768350Y-1288480D01*
X768350Y-1288480D02*
X776817Y-1292714D01*
X776817Y-1292714D02*
X781050Y-1296947D01*
X781050Y-1296947D02*
X785283Y-1305414D01*
X785283Y-1305414D02*
X785283Y-1313880D01*
X785283Y-1313880D02*
X781050Y-1322347D01*
X781050Y-1322347D02*
X776817Y-1326580D01*
X776817Y-1326580D02*
X768350Y-1330814D01*
X768350Y-1330814D02*
X738717Y-1330814D01*
X783167Y-2308714D02*
X774700Y-2304480D01*
X774700Y-2304480D02*
X762000Y-2304480D01*
X762000Y-2304480D02*
X749300Y-2308714D01*
X749300Y-2308714D02*
X740833Y-2317180D01*
X740833Y-2317180D02*
X736600Y-2325647D01*
X736600Y-2325647D02*
X732367Y-2342580D01*
X732367Y-2342580D02*
X732367Y-2355280D01*
X732367Y-2355280D02*
X736600Y-2372214D01*
X736600Y-2372214D02*
X740833Y-2380680D01*
X740833Y-2380680D02*
X749300Y-2389147D01*
X749300Y-2389147D02*
X762000Y-2393380D01*
X762000Y-2393380D02*
X770467Y-2393380D01*
X770467Y-2393380D02*
X783167Y-2389147D01*
X783167Y-2389147D02*
X787400Y-2384914D01*
X787400Y-2384914D02*
X787400Y-2355280D01*
X787400Y-2355280D02*
X770467Y-2355280D01*
X825500Y-2393380D02*
X825500Y-2304480D01*
X825500Y-2304480D02*
X876300Y-2393380D01*
X876300Y-2393380D02*
X876300Y-2304480D01*
X918633Y-2393380D02*
X918633Y-2304480D01*
X918633Y-2304480D02*
X939800Y-2304480D01*
X939800Y-2304480D02*
X952500Y-2308714D01*
X952500Y-2308714D02*
X960967Y-2317180D01*
X960967Y-2317180D02*
X965200Y-2325647D01*
X965200Y-2325647D02*
X969433Y-2342580D01*
X969433Y-2342580D02*
X969433Y-2355280D01*
X969433Y-2355280D02*
X965200Y-2372214D01*
X965200Y-2372214D02*
X960967Y-2380680D01*
X960967Y-2380680D02*
X952500Y-2389147D01*
X952500Y-2389147D02*
X939800Y-2393380D01*
X939800Y-2393380D02*
X918633Y-2393380D01*
X1087967Y-1288480D02*
X1045633Y-1288480D01*
X1045633Y-1288480D02*
X1041400Y-1330814D01*
X1041400Y-1330814D02*
X1045633Y-1326580D01*
X1045633Y-1326580D02*
X1054100Y-1322347D01*
X1054100Y-1322347D02*
X1075267Y-1322347D01*
X1075267Y-1322347D02*
X1083733Y-1326580D01*
X1083733Y-1326580D02*
X1087967Y-1330814D01*
X1087967Y-1330814D02*
X1092200Y-1339280D01*
X1092200Y-1339280D02*
X1092200Y-1360447D01*
X1092200Y-1360447D02*
X1087967Y-1368914D01*
X1087967Y-1368914D02*
X1083733Y-1373147D01*
X1083733Y-1373147D02*
X1075267Y-1377380D01*
X1075267Y-1377380D02*
X1054100Y-1377380D01*
X1054100Y-1377380D02*
X1045633Y-1373147D01*
X1045633Y-1373147D02*
X1041400Y-1368914D01*
X1117600Y-1288480D02*
X1147233Y-1377380D01*
X1147233Y-1377380D02*
X1176867Y-1288480D01*
D11*
%TO.C,CON103*%
X1206500Y-1210310D02*
X1206500Y-1972310D01*
X1206500Y-1210310D02*
X1231900Y-1235710D01*
X1206500Y-1273810D02*
X1270000Y-1210310D01*
X1206500Y-1972310D02*
X1206500Y-2480310D01*
X1206500Y-2480310D02*
X1460500Y-2480310D01*
X1397000Y-1210310D02*
X1460500Y-1273810D01*
X1460500Y-1210310D02*
X1206500Y-1210310D01*
X1460500Y-1210310D02*
X1435100Y-1235710D01*
X1460500Y-1972310D02*
X1460500Y-1210310D01*
X1460500Y-2480310D02*
X1460500Y-1972310D01*
%TO.C,CON102*%
X444500Y-1210310D02*
X444500Y-1972310D01*
X444500Y-1210310D02*
X469900Y-1235710D01*
X444500Y-1273810D02*
X508000Y-1210310D01*
X444500Y-1972310D02*
X444500Y-2480310D01*
X444500Y-2480310D02*
X698500Y-2480310D01*
X635000Y-1210310D02*
X698500Y-1273810D01*
X698500Y-1210310D02*
X444500Y-1210310D01*
X698500Y-1210310D02*
X673100Y-1235710D01*
X698500Y-1972310D02*
X698500Y-1210310D01*
X698500Y-2480310D02*
X698500Y-1972310D01*
%TO.C,CON101*%
X215900Y288290D02*
X1689100Y288290D01*
X215900Y59690D02*
X215900Y288290D01*
X215900Y59690D02*
X1689100Y59690D01*
X215900Y-67310D02*
X215900Y59690D01*
X215900Y-1032510D02*
X215900Y-473710D01*
X215900Y-1032510D02*
X1689100Y-1032510D01*
X1689100Y288290D02*
X1689100Y59690D01*
X1689100Y59690D02*
X1689100Y-67310D01*
X1689100Y-1032510D02*
X1689100Y-473710D01*
%TD*%
M02*
