M48
; DRILL file {KiCad 7.0.9} date Sun Apr  7 08:46:29 2024
; FORMAT={3:3/ absolute / metric / suppress leading zeros}
; #@! TF.CreationDate,2024-04-07T08:46:29-04:00
; #@! TF.GenerationSoftware,Kicad,Pcbnew,7.0.9
; #@! TF.FileFunction,MixedPlating,1,2
FMAT,2
METRIC,TZ
; #@! TA.AperFunction,Plated,PTH,ComponentDrill
T1C1.016
; #@! TA.AperFunction,Plated,PTH,ComponentDrill
T2C2.286
%
G90
G05
T1
X5461Y-5499
X5461Y-8039
X5715Y-13373
X5715Y-15913
X5715Y-18453
X5715Y-20993
X5715Y-23533
X7493Y-8039
X8255Y-5499
X9525Y-8039
X10287Y-5499
X11557Y-8039
X13335Y-13373
X13335Y-15913
X13335Y-18453
X13335Y-20993
X13335Y-23533
X13589Y-5499
X13589Y-8039
T2
X2286Y-2705
X9525Y-1943
X16764Y-2705
T0
M30
