G04 #@! TF.FileFunction,Copper,L1,Top,Signal*
%FSLAX46Y46*%
G04 Gerber Fmt 4.6, Leading zero omitted, Abs format (unit mm)*
G04 Created by KiCad (PCBNEW 4.0.2+dfsg1-stable) date Tue 04 Sep 2018 12:45:05 PM EDT*
%MOMM*%
G01*
G04 APERTURE LIST*
%ADD10C,0.100000*%
%ADD11C,1.524000*%
%ADD12C,3.048000*%
%ADD13R,1.270000X2.540000*%
%ADD14C,0.254000*%
G04 APERTURE END LIST*
D10*
D11*
X149542500Y-96266000D03*
X147510500Y-96266000D03*
X145478500Y-96266000D03*
X151574500Y-96266000D03*
X153606500Y-96266000D03*
X153606500Y-93726000D03*
X145478500Y-93726000D03*
X150812500Y-93726000D03*
X148780500Y-93726000D03*
D12*
X149542500Y-90170000D03*
X142303500Y-90932000D03*
X156781500Y-90932000D03*
D13*
X144526000Y-100393500D03*
X146558000Y-100393500D03*
X142494000Y-100393500D03*
X150495000Y-100393500D03*
X148590000Y-100393500D03*
X156527500Y-100393500D03*
X154495500Y-100393500D03*
X152463500Y-100393500D03*
X140462000Y-100393500D03*
X158559500Y-100393500D03*
D14*
X148590000Y-100393500D02*
X148590000Y-97218500D01*
X148590000Y-97218500D02*
X149542500Y-96266000D01*
X152463500Y-100393500D02*
X152463500Y-97409000D01*
X152463500Y-97409000D02*
X153606500Y-96266000D01*
X150495000Y-100393500D02*
X150495000Y-97345500D01*
X150495000Y-97345500D02*
X151574500Y-96266000D01*
X154876500Y-98488500D02*
X154876500Y-94996000D01*
X154876500Y-94996000D02*
X153606500Y-93726000D01*
X154495500Y-100393500D02*
X154495500Y-98869500D01*
X154495500Y-98869500D02*
X154876500Y-98488500D01*
X142494000Y-100393500D02*
X142494000Y-96710500D01*
X142494000Y-96710500D02*
X145478500Y-93726000D01*
X150812500Y-93726000D02*
X151904701Y-92633799D01*
X154130757Y-92633799D02*
X156527500Y-95030542D01*
X151904701Y-92633799D02*
X154130757Y-92633799D01*
X156527500Y-95030542D02*
X156527500Y-98869500D01*
X156527500Y-98869500D02*
X156527500Y-100393500D01*
X148780500Y-93726000D02*
X147688299Y-92633799D01*
X147688299Y-92633799D02*
X144954243Y-92633799D01*
X144954243Y-92633799D02*
X140462000Y-97126042D01*
X140462000Y-97126042D02*
X140462000Y-98869500D01*
X140462000Y-98869500D02*
X140462000Y-100393500D01*
X149542500Y-90170000D02*
X143065500Y-90170000D01*
X143065500Y-90170000D02*
X142303500Y-90932000D01*
X149542500Y-90170000D02*
X156019500Y-90170000D01*
X156019500Y-90170000D02*
X156781500Y-90932000D01*
X158559500Y-100393500D02*
X158559500Y-92710000D01*
X158559500Y-92710000D02*
X156781500Y-90932000D01*
X146558000Y-100393500D02*
X146558000Y-97218500D01*
X146558000Y-97218500D02*
X147510500Y-96266000D01*
X144526000Y-100393500D02*
X144526000Y-97218500D01*
X144526000Y-97218500D02*
X145478500Y-96266000D01*
M02*
